<?xml version="1.0" encoding="UTF-8"?>
<svg id="Ebene_1" xmlns="http://www.w3.org/2000/svg" version="1.1" viewBox="0 0 595.3 841.9">
  <!-- Generator: Adobe Illustrator 30.0.0, SVG Export Plug-In . SVG Version: 2.1.1 Build 123)  -->
  <defs>
    <style>
      .st0 {
        fill: #ff5b5c;
      }
    </style>
  </defs>
  <polygon class="st0" points="206.5 516.6 214 516.6 207.8 441.3 216.9 441.3 216.1 431.4 206.9 431.4 201.2 361.4 211 361.4 210.1 350 191.5 350 206.5 516.6"/>
  <polygon class="st0" points="376.4 350 375.7 361.4 384.9 361.4 373.3 516.6 380.8 516.6 393.5 361.4 402.7 361.4 403.7 350 376.4 350"/>
  <path class="st0" d="M325.3,505.6l1.5-56.8h-8l-1.1,56.8c0,1.2-1.4,2.3-2.9,2.3h-4.1c-1.5,0-2.8-1.1-2.7-2.3l1.4-141.3c0-1.6,1.5-2.9,3.2-2.9h4.8c1.7,0,3.1,1.4,3.1,2.9l-1.1,58h8.2l1.6-58c.2-7.9-4.9-14.4-11.5-14.4h-4.8c-6.5,0-11.9,6.5-11.9,14.3l-.4,141.3c0,6,4.5,10.8,10.2,10.8h4.1c5.6,0,10.4-4.9,10.5-10.9Z"/>
  <polygon class="st0" points="355.5 441.3 351.5 516.6 358.9 516.6 369 349.9 360.3 349.9 356 431.4 345.6 431.4 349.2 349.9 340.5 349.9 334.4 516.6 341.9 516.6 345.2 441.3 355.5 441.3"/>
  <polygon class="st0" points="225.7 581.3 218.5 581.3 214.6 535 222.1 535 221.6 527.7 207.5 527.7 217.5 639.6 223.3 639.6 219 587.9 226.2 587.9 225.7 581.3"/>
  <path class="st0" d="M355.9,527.7h-12.7l-5.1,111.9h11.3c4.4,0,8.2-3.6,8.5-8.1l6.3-93.8c.4-5.5-3.4-10-8.3-10ZM352.1,631.5c0,1.2-1.1,2.2-2.3,2.2h-5.5l5.1-98.7h6.1c1.3,0,2.4,1.2,2.3,2.7l-5.7,93.8Z"/>
  <path class="st0" d="M325.1,527.7h-12.1l-1.7,112h5.8l2.3-104.6h5.5c1.6,0,3,1.2,2.9,2.5l-3.1,102.1h5.8l3.8-102.1c.2-5.4-3.9-9.8-9.2-9.8Z"/>
  <path class="st0" d="M297.9,632.2c0,.8-1,1.6-2.2,1.6h-3.3c-1.2,0-2.2-.7-2.3-1.6l-.9-104.4h-6.5l1.5,104.4c0,4.1,3.7,7.5,8.1,7.5h3.2c4.4,0,8-3.3,8-7.4l.7-104.5h-6.5v104.5Z"/>
  <polygon class="st0" points="275.8 587.9 275.6 581.3 268.4 581.3 267 535 274.6 535 274.4 527.7 260.3 527.7 264.4 639.6 277 639.6 276.8 633.7 270.1 633.7 268.6 587.9 275.8 587.9"/>
  <polygon class="st0" points="365.1 639.6 377.7 639.6 378.2 633.7 371.4 633.7 375.2 587.9 382.3 587.9 382.9 581.3 375.8 581.3 379.6 535 387.1 535 387.8 527.7 373.6 527.7 365.1 639.6"/>
  <path class="st0" d="M281,247.6h0l2.2,258.2c0,1.2-1.2,2.2-2.7,2.2h-4.1c-1.5,0-2.8-1.1-2.9-2.3l-3.7-155.7h-8.7l4.8,155.7c.2,6,4.9,10.9,10.6,10.9h4.1c5.6,0,10.1-4.8,10.1-10.8l-1-254.6,69.1-70.3-5.8-5.8-72,72.6Z"/>
  <path class="st0" d="M230.9,660.6v.4c0,2.4-.3,3.2-1.3,4-.5.4-1.3.7-2,.9-.4,0-1.3.1-2.6.1-2.6,0-3.2,0-4-.5-1.2-.6-2-1.6-2.2-2.9-.1-.7-.2-2.6-.2-5,0-2.4.4-3.6,1.3-4.5,1.1-1.1,2.2-1.3,5.5-1.3,2.1,0,2.8.1,3.6.5,1,.5,1.6,1.3,1.7,2.6,0,.5,0,.9,0,2.1h-3.7c0-.9,0-1.1-.2-1.3-.2-.4-.8-.6-2.2-.6-1.3,0-1.9.2-2.1,1-.2.5-.2,1.2-.2,4.1,0,2.2.4,2.7,2.4,2.7,1.8,0,2.3-.3,2.3-1.8,0,0,0-.2,0-.4h3.7Z"/>
  <path class="st0" d="M244.4,663.6l-.7,2.4h-3.9s4.3-14,4.3-14h5.7s4.2,14.1,4.2,14.1h-3.8s-.7-2.4-.7-2.4h-5ZM247,654.8l-1.8,6.1h3.5s-1.7-6.1-1.7-6.1Z"/>
  <path class="st0" d="M268.7,666.1h-3.8s0-10.8,0-10.8h-3.5s0-3.2,0-3.2h11.1c0,0,0,3.3,0,3.3h-3.8s0,10.8,0,10.8Z"/>
  <path class="st0" d="M286.1,657.9h6s0,2.6,0,2.6h-6s0,2.7,0,2.7h6.5s0,3.1,0,3.1h-10.3c0,0,.1-14.1.1-14.1h10.1c0,0,0,3.2,0,3.2h-6.4s0,2.5,0,2.5Z"/>
  <path class="st0" d="M302.9,652.4h7.1c2,0,2.9.3,3.7.9.9.7,1.2,1.7,1.2,3.6,0,2-.3,3-1,3.5-.4.3-.7.4-1.7.7h0c1.7.2,2.6,1.2,2.5,2.9v2.6s-3.8,0-3.8,0v-1.9c0-1.3-.4-1.9-1.5-1.9h-2.8s0,3.7,0,3.7h-3.8s.1-14,.1-14ZM309.6,659.5c1.2,0,1.5-.3,1.5-2.2,0-1.4-.3-1.7-1.6-1.7h-2.8s0,3.9,0,3.9h3Z"/>
  <path class="st0" d="M328.9,666.6h-3.8s.1-14,.1-14h3.8s-.1,14-.1,14Z"/>
  <path class="st0" d="M353.6,666.7h-6.4s-2.2-6-2.2-6c-.3-.8-.6-1.6-.9-2.4l-.8-2.5h-.2s0,1.3,0,1.3c0,1.9,0,2.2,0,3.9v5.6s-3.7,0-3.7,0v-14c.1,0,6.4,0,6.4,0l2.2,5.9c.3.8.6,1.6.9,2.4.3.8.5,1.6.8,2.4h.1s0-1.3,0-1.3c0-1.9,0-2.1,0-3.8v-5.6s3.8,0,3.8,0v14Z"/>
  <path class="st0" d="M376.6,659c0,1.2,0,2.3,0,3,0,2.1-.3,3-1,3.8-.9.9-2.1,1.2-5.6,1.2-2,0-2.9-.1-3.7-.5-1.9-.8-2.6-2.3-2.6-5.4,0-1.2,0-3.2.1-3.9.1-1.6.8-2.8,1.8-3.5,1.1-.7,2.1-.9,5.1-.9,2.5,0,3.3.1,4.3.7,1,.6,1.5,1.7,1.5,3.8h-3.8c-.1-1.1-.5-1.4-2.3-1.4-1.6,0-2.3.2-2.6.9-.2.4-.3,1-.3,2.9,0,1.8,0,2.8.2,3.2.2.6.9.9,2.3.9,1.4,0,2.1-.2,2.4-.6.2-.4.3-.6.3-1.7h-2.6s0-2.6,0-2.6h6.3Z"/>
  <path class="st0" d="M239.5,516.5l-4.3-75.4h6.3l9.2,75.4h7.5l-8.8-76.7c2.3-1.7,3.9-4.8,3.7-8.4l-2.8-70.3c-.2-6.1-4.3-11.2-9-11.2h-20l5.6,86.2.3,4.9,4.9,75.4h7.5ZM241.7,361.2l3.4,70h-10.4l-4-69.9,11-.2Z"/>
  <path class="st0" d="M243.4,639.6l-3.2-51.7h5l7,51.7h5.8l-6.8-52.7c1.8-1.2,3-3.3,2.9-5.9l-2.1-45.8c-.2-4.2-3.4-7.6-7.2-7.6h-14.9l3.8,56.9.2,3.3,3.5,51.7h5.8ZM245.3,535c.1,0,.3.1.3.3l2.4,45.8c0,.1,0,.3-.2.3h-7.9l-2.8-46.3h8.3Z"/>
</svg>